<?xml version="1.0" encoding="UTF-8" standalone="no"?>
<svg
   xmlns:dc="http://purl.org/dc/elements/1.1/"
   xmlns:cc="http://creativecommons.org/ns#"
   xmlns:rdf="http://www.w3.org/1999/02/22-rdf-syntax-ns#"
   xmlns:svg="http://www.w3.org/2000/svg"
   xmlns="http://www.w3.org/2000/svg"
   xmlns:sodipodi="http://sodipodi.sourceforge.net/DTD/sodipodi-0.dtd"
   xmlns:inkscape="http://www.inkscape.org/namespaces/inkscape"
   aria-hidden="true"
   data-prefix="far"
   data-icon="images"
   class="svg-inline--fa fa-images fa-w-18"
   role="img"
   viewBox="0 0 600 600"
   version="1.1"
   id="svg4"
   sodipodi:docname="logo.svg"
   width="600"
   height="600"
   inkscape:version="0.92.2 5c3e80d, 2017-08-06">
  <metadata
     id="metadata10">
    <rdf:RDF>
      <cc:Work
         rdf:about="">
        <dc:format>image/svg+xml</dc:format>
        <dc:type
           rdf:resource="http://purl.org/dc/dcmitype/StillImage" />
        <dc:title></dc:title>
      </cc:Work>
    </rdf:RDF>
  </metadata>
  <defs
     id="defs8" />
  <sodipodi:namedview
     pagecolor="#ffffff"
     bordercolor="#666666"
     borderopacity="1"
     objecttolerance="10"
     gridtolerance="10"
     guidetolerance="10"
     inkscape:pageopacity="0"
     inkscape:pageshadow="2"
     inkscape:window-width="1432"
     inkscape:window-height="840"
     id="namedview6"
     showgrid="false"
     fit-margin-top="0"
     fit-margin-left="0"
     fit-margin-right="0"
     fit-margin-bottom="0"
     inkscape:zoom="0.4609375"
     inkscape:cx="288"
     inkscape:cy="224"
     inkscape:window-x="0"
     inkscape:window-y="0"
     inkscape:window-maximized="0"
     inkscape:current-layer="svg4" />
  <path
     d="m 463.17676,435.98063 v 13.59806 c 0,22.53029 -18.2639,40.79419 -40.79419,40.79419 H 96.029056 c -22.530295,0 -40.794193,-18.2639 -40.794193,-40.79419 V 232.00968 c 0,-22.53029 18.263898,-40.79418 40.794193,-40.79418 h 13.598064 v 40.79418 h -8.49879 a 5.0992736,5.0992736 0 0 0 -5.099274,5.09928 v 207.37046 a 5.0992736,5.0992736 0 0 0 5.099274,5.09927 H 417.2833 a 5.0992736,5.0992736 0 0 0 5.09927,-5.09927 v -8.49879 z M 498.87167,150.42131 H 182.71671 a 5.0992736,5.0992736 0 0 0 -5.09927,5.09927 v 207.37046 a 5.0992736,5.0992736 0 0 0 5.09927,5.09927 h 316.15496 a 5.0992736,5.0992736 0 0 0 5.09928,-5.09927 V 155.52058 a 5.0992736,5.0992736 0 0 0 -5.09928,-5.09927 z m 5.09928,-40.79419 c 22.53029,0 40.79419,18.2639 40.79419,40.79419 v 217.569 c 0,22.53029 -18.2639,40.79419 -40.79419,40.79419 H 177.61744 c -22.53029,0 -40.7942,-18.2639 -40.7942,-40.79419 v -217.569 c 0,-22.53029 18.26391,-40.79419 40.7942,-40.79419 z m -224.36804,95.18644 c 0,18.77467 -15.22048,33.99516 -33.99516,33.99516 -18.77467,0 -33.99516,-15.22049 -33.99516,-33.99516 0,-18.77468 15.22049,-33.99516 33.99516,-33.99516 18.77468,0 33.99516,15.22048 33.99516,33.99516 z m -61.19128,81.58838 33.58296,-33.58297 c 3.98253,-3.98253 10.43991,-3.98253 14.4233,0 L 300,286.40194 387.97522,198.42672 c 3.98253,-3.98253 10.43991,-3.98253 14.4233,0 l 60.77824,60.77909 v 67.99031 H 218.41163 Z"
     id="path2"
     inkscape:connector-curvature="0"
     style="fill:#008080;stroke-width:0.84987891" />
</svg>
